<svg width="17" height="16" viewBox="0 0 17 16" fill="none" xmlns="http://www.w3.org/2000/svg">
<g id="material-symbols:arrow-outward-rounded">
<path id="Vector" d="M10.9031 5.59998L4.98643 11.5333C4.85309 11.6666 4.69465 11.7333 4.51109 11.7333C4.32798 11.7333 4.16976 11.6666 4.03643 11.5333C3.90309 11.4 3.83643 11.2415 3.83643 11.058C3.83643 10.8749 3.90309 10.7166 4.03643 10.5833L9.96976 4.66665H4.90309C4.7142 4.66665 4.55576 4.60287 4.42776 4.47531C4.3002 4.34731 4.23643 4.18887 4.23643 3.99998C4.23643 3.81109 4.3002 3.65265 4.42776 3.52465C4.55576 3.39709 4.7142 3.33331 4.90309 3.33331H11.5698C11.7586 3.33331 11.9169 3.39709 12.0444 3.52465C12.1724 3.65265 12.2364 3.81109 12.2364 3.99998V10.6666C12.2364 10.8555 12.1724 11.0138 12.0444 11.1413C11.9169 11.2693 11.7586 11.3333 11.5698 11.3333C11.3809 11.3333 11.2226 11.2693 11.0951 11.1413C10.9671 11.0138 10.9031 10.8555 10.9031 10.6666V5.59998Z" fill="black"/>
</g>
</svg>
