<svg width="120" height="120" viewBox="0 0 120 120" fill="none" xmlns="http://www.w3.org/2000/svg">
<g id="icon">
<g id="Vector" filter="url(#filter0_d_106_264)">
<path fill-rule="evenodd" clip-rule="evenodd" d="M61.3779 97.9456C66.6584 91.7852 64.033 81.8707 57.9334 78.8211C46.2602 72.9843 32.1872 72.4795 20.6503 66.4075C18.3272 65.185 15.556 63.1831 14.6156 60.6303C13.4308 57.4146 15.185 51.1506 19.0157 50.8311C19.0157 50.8158 18.1035 49.6383 17.9113 48.4343C17.6753 46.7204 17.8132 44.8912 18.513 43.3014C19.9363 40.0661 26.8284 36.3687 29.9811 39.5215C29.9899 39.5303 30.0532 38.3589 30.0604 38.2864C30.1459 37.4336 30.4377 36.5804 30.7693 35.7952C31.7713 33.4214 33.3356 31.2123 35.3651 29.61C39.5576 26.3004 48.8491 25.0074 51.7733 30.8556C51.7733 30.8556 52.8411 28.2144 53.7874 27.2488C55.6531 25.3449 58.1384 23.8537 60.6597 22.9963C67.5149 20.6657 75.44 23.87 76.4017 31.5654C76.4017 31.5654 77.4951 30.9528 77.5924 30.8996C78.3684 30.4745 79.1633 30.0665 79.9763 29.7181C82.2964 28.7237 85.1599 27.9887 87.6435 28.7731C94.2597 30.8627 97.9172 38.161 94.4945 44.3223C94.4945 44.3223 96.2365 44.5994 97.0783 44.8535C98.7348 45.3536 100.104 46.2844 101.266 47.5597C104.273 50.8596 104.9 56.294 101.094 59.2212C101.094 59.2212 101.831 59.4976 102.713 60.2919C103.809 61.2784 104.728 62.519 105.262 63.9017C106.875 68.0841 104.72 70.3137 102.137 72.8963C102.077 72.8661 102.591 73.2925 102.684 73.3742C103.121 73.7612 103.528 74.2328 103.821 74.7393C104.651 76.1748 104.479 78.0694 104.049 79.608C102.84 83.9225 98.6111 87.1231 94.1293 85.6293C93.9299 86.38 92.8933 88.0031 91.6427 88.8127C88.6723 90.7345 83.8267 90.7228 81.0257 88.585C79.5377 87.4497 78.7156 85.7501 77.2943 84.5657C77.7517 84.9821 77.532 87.7323 77.4603 88.1708C76.9644 91.2024 74.7419 95.6699 72.182 97.5897L61.3779 97.9456Z" fill="#FF9898"/>
<path fill-rule="evenodd" clip-rule="evenodd" d="M61.3779 97.9456C66.6584 91.7852 64.033 81.8707 57.9334 78.8211C46.2602 72.9843 32.1872 72.4795 20.6503 66.4075C18.3272 65.185 15.556 63.1831 14.6156 60.6303C13.4308 57.4146 15.185 51.1506 19.0157 50.8311C19.0157 50.8158 18.1035 49.6383 17.9113 48.4343C17.6753 46.7204 17.8132 44.8912 18.513 43.3014C19.9363 40.0661 26.8284 36.3687 29.9811 39.5215C29.9899 39.5303 30.0532 38.3589 30.0604 38.2864C30.1459 37.4336 30.4377 36.5804 30.7693 35.7952C31.7713 33.4214 33.3356 31.2123 35.3651 29.61C39.5576 26.3004 48.8491 25.0074 51.7733 30.8556C51.7733 30.8556 52.8411 28.2144 53.7874 27.2488C55.6531 25.3449 58.1384 23.8537 60.6597 22.9963C67.5149 20.6657 75.44 23.87 76.4017 31.5654C76.4017 31.5654 77.4951 30.9528 77.5924 30.8996C78.3684 30.4745 79.1633 30.0665 79.9763 29.7181C82.2964 28.7237 85.1599 27.9887 87.6435 28.7731C94.2597 30.8627 97.9172 38.161 94.4945 44.3223C94.4945 44.3223 96.2365 44.5994 97.0783 44.8535C98.7348 45.3536 100.104 46.2844 101.266 47.5597C104.273 50.8596 104.9 56.294 101.094 59.2212C101.094 59.2212 101.831 59.4976 102.713 60.2919C103.809 61.2784 104.728 62.519 105.262 63.9017C106.875 68.0841 104.72 70.3137 102.137 72.8963C102.077 72.8661 102.591 73.2925 102.684 73.3742C103.121 73.7612 103.528 74.2328 103.821 74.7393C104.651 76.1748 104.479 78.0694 104.049 79.608C102.84 83.9225 98.6111 87.1231 94.1293 85.6293C93.9299 86.38 92.8933 88.0031 91.6427 88.8127C88.6723 90.7345 83.8267 90.7228 81.0257 88.585C79.5377 87.4497 78.7156 85.7501 77.2943 84.5657C77.7517 84.9821 77.532 87.7323 77.4603 88.1708C76.9644 91.2024 74.7419 95.6699 72.182 97.5897L61.3779 97.9456Z" stroke="black" stroke-width="4" stroke-miterlimit="1.5" stroke-linecap="round" stroke-linejoin="round"/>
</g>
<path id="Vector_2" d="M31.3635 53.8549C31.3723 53.8637 31.3925 53.8683 31.4021 53.8717C31.343 54.5685 31.5074 51.2326 31.5871 50.7926C32.0171 48.4312 32.9887 46.606 35.2653 45.4817C40.1793 43.0545 46.2494 44.6398 46.7407 50.5539C46.7449 50.6004 46.6484 49.3075 46.6647 49.1154C46.7352 48.3003 46.8489 47.4848 47.1094 46.7045C48.0315 43.9434 49.9633 41.9453 52.6262 40.6633C58.7635 37.7092 65.2649 40.4808 65.2452 47.3694" stroke="black" stroke-width="4" stroke-miterlimit="1.5" stroke-linecap="round" stroke-linejoin="round"/>
<path id="Vector_3" d="M74.1083 51.0064C73.6231 51.0001 74.8214 50.3347 75.2585 50.1268C76.0816 49.7349 76.9516 49.4672 77.8571 49.3363C80.5561 48.9465 83.2681 49.6437 85.4275 51.2795C90.1935 54.8899 88.6502 60.2335 83.6608 62.534C83.5558 62.5825 84.4919 62.2065 84.596 62.1931C85.42 62.0889 86.3084 62.1542 87.1152 62.342C89.4662 62.8895 91.6064 64.5955 92.9034 66.5752C96.0069 71.3127 92.3384 75.9207 87.2808 76.4836" stroke="black" stroke-width="4" stroke-miterlimit="1.5" stroke-linecap="round" stroke-linejoin="round"/>
</g>
<defs>
<filter id="filter0_d_106_264" x="12.2498" y="20.2504" width="99.5684" height="83.6953" filterUnits="userSpaceOnUse" color-interpolation-filters="sRGB">
<feFlood flood-opacity="0" result="BackgroundImageFix"/>
<feColorMatrix in="SourceAlpha" type="matrix" values="0 0 0 0 0 0 0 0 0 0 0 0 0 0 0 0 0 0 127 0" result="hardAlpha"/>
<feOffset dx="4" dy="4"/>
<feComposite in2="hardAlpha" operator="out"/>
<feColorMatrix type="matrix" values="0 0 0 0 0 0 0 0 0 0 0 0 0 0 0 0 0 0 1 0"/>
<feBlend mode="normal" in2="BackgroundImageFix" result="effect1_dropShadow_106_264"/>
<feBlend mode="normal" in="SourceGraphic" in2="effect1_dropShadow_106_264" result="shape"/>
</filter>
</defs>
</svg>
