<svg width="25" height="24" viewBox="0 0 25 24" fill="none" xmlns="http://www.w3.org/2000/svg">
<g id="ph:globe-light">
<path id="Vector" d="M21.2643 15.15C21.9767 13.1104 21.9767 10.8896 21.2643 8.84997L21.2362 8.77497C20.5707 6.92129 19.349 5.31833 17.7381 4.18513C16.1273 3.05194 14.2058 2.44379 12.2362 2.44379C10.2667 2.44379 8.3452 3.05194 6.73432 4.18513C5.12344 5.31833 3.90176 6.92129 3.23623 8.77497L3.2081 8.84997C2.49574 10.8896 2.49574 13.1104 3.2081 15.15L3.23623 15.225C3.9008 17.079 5.12164 18.6826 6.73193 19.8166C8.34222 20.9507 10.2634 21.5598 12.2329 21.5608C14.2025 21.5619 16.1243 20.9547 17.7357 19.8224C19.3472 18.69 20.5697 17.0877 21.2362 15.2343L21.2643 15.15ZM9.5831 15.5625H14.8893C14.355 17.2781 13.4456 18.8156 12.2362 19.9968C11.0268 18.8156 10.1175 17.2781 9.5831 15.5625ZM9.30185 14.4375C8.96425 12.83 8.96425 11.1699 9.30185 9.56247H15.1706C15.5082 11.1699 15.5082 12.83 15.1706 14.4375H9.30185ZM3.79873 12C3.79677 11.1744 3.91682 10.353 4.15498 9.56247H8.14873C7.84865 11.1736 7.84865 12.8263 8.14873 14.4375H4.15498C3.91682 13.647 3.79677 12.8256 3.79873 12ZM14.8893 8.43747H9.5831C10.1175 6.72185 11.0268 5.18435 12.2362 4.0031C13.4456 5.18435 14.355 6.72185 14.8893 8.43747ZM16.3331 9.56247H20.3175C20.7927 11.1527 20.7927 12.8472 20.3175 14.4375H16.3331C16.6206 12.8252 16.6206 11.1748 16.3331 9.56247ZM19.8862 8.43747H16.0706C15.5899 6.65898 14.6934 5.02019 13.455 3.65622C14.839 3.85839 16.1512 4.40109 17.2737 5.23561C18.3962 6.07013 19.2939 7.17034 19.8862 8.43747ZM11.0175 3.65622C9.77906 5.02019 8.88255 6.65898 8.40185 8.43747H4.58623C5.17853 7.17034 6.07624 6.07013 7.19875 5.23561C8.32126 4.40109 9.63343 3.85839 11.0175 3.65622ZM4.58623 15.5625H8.40185C8.88451 17.343 9.78069 18.9844 11.0175 20.3531C9.63359 20.1468 8.32221 19.6014 7.20012 18.7656C6.07803 17.9297 5.18008 16.8294 4.58623 15.5625ZM13.455 20.3531C14.6918 18.9844 15.5879 17.343 16.0706 15.5625H19.8862C19.2924 16.8294 18.3944 17.9297 17.2723 18.7656C16.1502 19.6014 14.8389 20.1468 13.455 20.3531Z" fill="black"/>
</g>
</svg>
