<svg width="150" height="140" viewBox="0 0 150 140" fill="none" xmlns="http://www.w3.org/2000/svg">
<circle cx="34" cy="62.5" r="32.5" fill="#C0FFE0" stroke="black" stroke-width="2"/>
<g filter="url(#filter0_d_106_314)">
<path fill-rule="evenodd" clip-rule="evenodd" d="M46.8468 130.746C47.3358 127.034 51.0913 120.821 47.9963 118.717C34.9672 109.863 20.1768 98.1726 20.8744 80.6648C21.156 73.5685 23.2219 64.7907 28.2472 59.5017C31.6481 55.9241 37.9803 55.2533 41.2686 59.5579C44.7464 64.1083 41.851 71.4299 41.5143 76.5179C41.2622 80.3157 42.3681 83.6128 46.5729 84.1517C47.8478 84.3155 49.1573 84.2695 50.4321 84.1211C52.1921 83.915 53.8741 83.4052 55.3921 82.4811C60.4456 79.4027 63.1733 71.1376 63.3217 65.5248C63.4152 61.9549 62.1338 58.2877 58.4641 57.178C52.7617 55.4551 47.0683 62.5479 41.6577 59.3223C40.763 58.7886 39.9463 58.1078 39.3307 57.2617C35.1259 51.4825 40.0462 45.3885 44.7656 41.9798C49.2942 38.7107 55.1899 35.7623 60.8718 35.5767C73.563 35.1607 81.1009 48.0355 82.7879 59.1011C83.7018 48.335 80.059 37.5389 79.2782 26.8573C79.0158 23.2618 78.5921 18.8408 79.6109 15.1224C81.4157 8.53164 89.6615 5.45578 95.163 9.78986C99.4906 13.1985 101.327 19.9432 101.513 25.1861C122.397 24.7509 122.824 43.078 122.88 43.078C123.189 43.0792 138.611 46.9346 136.91 64.1442C133.805 95.5541 108.785 118.736 94.7265 119.711C94.6343 119.717 92.8807 123.84 92.3034 125.624C90.8122 130.233 91.762 127.444 90.9108 132.222" fill="white"/>
<path d="M46.8468 130.746C47.3358 127.034 51.0913 120.821 47.9963 118.717C34.9672 109.863 20.1768 98.1726 20.8744 80.6648C21.156 73.5685 23.2219 64.7907 28.2472 59.5017C31.6481 55.9241 37.9803 55.2533 41.2686 59.5579C44.7464 64.1083 41.851 71.4299 41.5143 76.5179C41.2622 80.3157 42.3681 83.6128 46.5729 84.1517C47.8478 84.3155 49.1573 84.2695 50.4321 84.1211C52.1921 83.915 53.8741 83.4052 55.3921 82.4811C60.4456 79.4027 63.1733 71.1376 63.3217 65.5248C63.4152 61.9549 62.1338 58.2877 58.4641 57.178C52.7617 55.4551 47.0683 62.5479 41.6577 59.3223C40.763 58.7886 39.9463 58.1078 39.3307 57.2617C35.1259 51.4825 40.0462 45.3885 44.7656 41.9798C49.2942 38.7107 55.1899 35.7623 60.8718 35.5767C73.563 35.1607 81.1009 48.0355 82.7879 59.1011C83.7018 48.335 80.059 37.5389 79.2782 26.8573C79.0158 23.2618 78.5921 18.8408 79.6109 15.1224C81.4157 8.53164 89.6615 5.45578 95.163 9.78986C99.4906 13.1985 101.327 19.9432 101.513 25.1861C122.397 24.7509 122.824 43.078 122.88 43.078C123.189 43.0792 138.611 46.9346 136.91 64.1442C133.805 95.5541 108.785 118.736 94.7265 119.711C94.6343 119.717 92.8807 123.84 92.3034 125.624C90.8122 130.233 91.762 127.444 90.9108 132.222" stroke="black" stroke-width="4" stroke-miterlimit="1.5" stroke-linecap="round" stroke-linejoin="round"/>
</g>
<path d="M101.47 24.9832C102.604 32.5269 103.357 41.8239 103.364 50.6954C103.372 59.9263 102.571 68.6964 100.549 74.5512" stroke="black" stroke-width="4" stroke-miterlimit="1.5" stroke-linecap="round" stroke-linejoin="round"/>
<path d="M122.874 43.2549C122.898 49.0976 122.257 54.4043 121.256 59.1026C119.661 66.594 117.153 72.5384 114.975 76.6417" stroke="black" stroke-width="4" stroke-miterlimit="1.5" stroke-linecap="round" stroke-linejoin="round"/>
<defs>
<filter id="filter0_d_106_314" x="18.8506" y="5.76978" width="124.191" height="132.453" filterUnits="userSpaceOnUse" color-interpolation-filters="sRGB">
<feFlood flood-opacity="0" result="BackgroundImageFix"/>
<feColorMatrix in="SourceAlpha" type="matrix" values="0 0 0 0 0 0 0 0 0 0 0 0 0 0 0 0 0 0 127 0" result="hardAlpha"/>
<feOffset dx="4" dy="4"/>
<feComposite in2="hardAlpha" operator="out"/>
<feColorMatrix type="matrix" values="0 0 0 0 0 0 0 0 0 0 0 0 0 0 0 0 0 0 1 0"/>
<feBlend mode="normal" in2="BackgroundImageFix" result="effect1_dropShadow_106_314"/>
<feBlend mode="normal" in="SourceGraphic" in2="effect1_dropShadow_106_314" result="shape"/>
</filter>
</defs>
</svg>
