<svg width="18" height="19" viewBox="0 0 18 19" fill="none" xmlns="http://www.w3.org/2000/svg">
<g id="material-symbols:mail-outline-rounded">
<path id="Vector" d="M3 15.5C2.5875 15.5 2.2345 15.3533 1.941 15.0597C1.647 14.7657 1.5 14.4125 1.5 14V5C1.5 4.5875 1.647 4.2345 1.941 3.941C2.2345 3.647 2.5875 3.5 3 3.5H15C15.4125 3.5 15.7657 3.647 16.0597 3.941C16.3533 4.2345 16.5 4.5875 16.5 5V14C16.5 14.4125 16.3533 14.7657 16.0597 15.0597C15.7657 15.3533 15.4125 15.5 15 15.5H3ZM15 6.5L9.39375 10.0063C9.33125 10.0438 9.2655 10.0717 9.1965 10.0903C9.128 10.1092 9.0625 10.1187 9 10.1187C8.9375 10.1187 8.872 10.1092 8.8035 10.0903C8.7345 10.0717 8.66875 10.0438 8.60625 10.0063L3 6.5V14H15V6.5ZM9 8.75L15 5H3L9 8.75ZM3 6.6875V5.58125V5.6V5.59025V6.6875Z" fill="white"/>
</g>
</svg>
