<svg width="156" height="140" viewBox="0 0 156 140" fill="none" xmlns="http://www.w3.org/2000/svg">
<circle cx="67.9522" cy="66.9856" r="65.9856" fill="#C0FFE0" stroke="black" stroke-width="2"/>
<g filter="url(#filter0_d_106_236)">
<path fill-rule="evenodd" clip-rule="evenodd" d="M54.3783 101.5C67.9793 101.032 123.786 99.6821 133.399 95.7386C144.899 91.0205 139.548 56.7399 137.919 43.9759C137.269 38.8826 134.76 32.3657 129.799 29.8233C121.165 25.3979 49.3329 30.4867 42.7486 33.0151C32.7209 36.8661 35.6262 49.9807 35.878 56.7666C36.2388 66.4943 36.7424 76.2511 37.4072 85.9637C37.7359 90.7677 37.6647 95.6603 41.5808 99.0471C45.1228 102.11 50.1267 101.646 54.3783 101.5Z" fill="white"/>
<path fill-rule="evenodd" clip-rule="evenodd" d="M54.3783 101.5C67.9793 101.032 123.786 99.6821 133.399 95.7386C144.899 91.0205 139.548 56.7399 137.919 43.9759C137.269 38.8826 134.76 32.3657 129.799 29.8233C121.165 25.3979 49.3329 30.4867 42.7486 33.0151C32.7209 36.8661 35.6262 49.9807 35.878 56.7666C36.2388 66.4943 36.7424 76.2511 37.4072 85.9637C37.7359 90.7677 37.6647 95.6603 41.5808 99.0471C45.1228 102.11 50.1267 101.646 54.3783 101.5Z" stroke="black" stroke-width="4" stroke-miterlimit="1.5" stroke-linecap="round" stroke-linejoin="round"/>
</g>
<path d="M76.5068 100.761C84.4179 100.463 93.2807 100.074 101.662 99.5675C102.798 104.307 103.048 109.48 103.246 113.596C103.281 114.322 103.315 115.015 103.351 115.667C99.6768 115.898 95.0126 116.124 90.0905 116.362C85.458 116.585 80.5971 116.82 76.1181 117.081V115.644C76.1139 115.025 76.1017 114.33 76.0886 113.574C76.0279 110.098 75.9449 105.337 76.5068 100.761Z" fill="white"/>
<path d="M76.5068 100.761C84.4179 100.463 93.2807 100.074 101.662 99.5675C102.798 104.307 103.048 109.48 103.246 113.596C103.281 114.322 103.315 115.015 103.351 115.667C99.6768 115.898 95.0126 116.124 90.0905 116.362C85.458 116.585 80.5971 116.82 76.1181 117.081V115.644C76.1139 115.025 76.1017 114.33 76.0886 113.574C76.0279 110.098 75.9449 105.337 76.5068 100.761Z" stroke="black" stroke-width="4" stroke-miterlimit="1.5" stroke-linecap="round" stroke-linejoin="round"/>
<path d="M64.604 117.84C68.3252 117.51 72.1845 117.235 76.1091 116.995M119.377 114.693C114.402 115.083 108.976 115.382 103.33 115.654" stroke="black" stroke-width="4" stroke-miterlimit="1.5" stroke-linecap="round" stroke-linejoin="round"/>
<path d="M56.6135 71.5827C63.025 65.6217 68.0477 58.0525 74.8721 52.4891C78.0422 56.1818 81.7457 59.442 84.5563 63.4524C88.5701 61.5166 106.081 45.3543 110.064 41.4054" stroke="black" stroke-width="4" stroke-miterlimit="1.5" stroke-linecap="round" stroke-linejoin="round"/>
<path d="M62.0059 77.8845C62.1471 80.4931 62.1635 83.1135 62.3858 85.7165" stroke="black" stroke-width="4" stroke-miterlimit="1.5" stroke-linecap="round" stroke-linejoin="round"/>
<path d="M72.9507 69.3208C72.8932 74.6274 73.4771 79.9012 73.9519 85.1754" stroke="black" stroke-width="4" stroke-miterlimit="1.5" stroke-linecap="round" stroke-linejoin="round"/>
<path d="M84.7019 75.0356C84.9032 78.4529 85.2647 81.908 85.6345 85.3148" stroke="black" stroke-width="4" stroke-miterlimit="1.5" stroke-linecap="round" stroke-linejoin="round"/>
<path d="M97.7251 67.9076C98.7233 73.1911 98.6771 78.5726 99.3586 83.8768" stroke="black" stroke-width="4" stroke-miterlimit="1.5" stroke-linecap="round" stroke-linejoin="round"/>
<path d="M111.144 83.4662C110.432 79.8891 110.762 75.9616 110.549 72.335C110.199 66.373 109.316 60.3144 109.402 54.3457" stroke="black" stroke-width="4" stroke-miterlimit="1.5" stroke-linecap="round" stroke-linejoin="round"/>
<defs>
<filter id="filter0_d_106_236" x="33.2966" y="26.0784" width="113.291" height="81.5346" filterUnits="userSpaceOnUse" color-interpolation-filters="sRGB">
<feFlood flood-opacity="0" result="BackgroundImageFix"/>
<feColorMatrix in="SourceAlpha" type="matrix" values="0 0 0 0 0 0 0 0 0 0 0 0 0 0 0 0 0 0 127 0" result="hardAlpha"/>
<feOffset dx="4" dy="4"/>
<feComposite in2="hardAlpha" operator="out"/>
<feColorMatrix type="matrix" values="0 0 0 0 0 0 0 0 0 0 0 0 0 0 0 0 0 0 1 0"/>
<feBlend mode="normal" in2="BackgroundImageFix" result="effect1_dropShadow_106_236"/>
<feBlend mode="normal" in="SourceGraphic" in2="effect1_dropShadow_106_236" result="shape"/>
</filter>
</defs>
</svg>
