<svg width="18" height="18" viewBox="0 0 18 18" fill="none" xmlns="http://www.w3.org/2000/svg">
<g id="material-symbols:phone-in-talk-outline-rounded">
<path id="Vector" d="M15 9C14.8 9 14.622 8.928 14.466 8.784C14.3095 8.6405 14.2187 8.4625 14.1937 8.25C14.0312 7.0875 13.5407 6.09675 12.7222 5.27775C11.9032 4.45925 10.9125 3.96875 9.75 3.80625C9.5375 3.78125 9.3595 3.69375 9.216 3.54375C9.072 3.39375 9 3.2125 9 3C9 2.7875 9.075 2.60925 9.225 2.46525C9.375 2.32175 9.55 2.2625 9.75 2.2875C11.325 2.4625 12.6687 3.10625 13.7812 4.21875C14.8938 5.33125 15.5375 6.675 15.7125 8.25C15.7375 8.45 15.678 8.625 15.534 8.775C15.3905 8.925 15.2125 9 15 9ZM11.8687 9C11.7063 9 11.5625 8.94375 11.4375 8.83125C11.3125 8.71875 11.2188 8.56875 11.1562 8.38125C11.0562 8.01875 10.8658 7.69675 10.5848 7.41525C10.3033 7.13425 9.98125 6.94375 9.61875 6.84375C9.43125 6.78125 9.28125 6.6875 9.16875 6.5625C9.05625 6.4375 9 6.2875 9 6.1125C9 5.8625 9.0875 5.65925 9.2625 5.50275C9.4375 5.34675 9.63125 5.29375 9.84375 5.34375C10.5437 5.50625 11.147 5.8405 11.6535 6.3465C12.1595 6.853 12.4937 7.45625 12.6562 8.15625C12.7063 8.36875 12.65 8.5625 12.4875 8.7375C12.325 8.9125 12.1187 9 11.8687 9ZM14.9625 15.75C13.35 15.75 11.7782 15.3905 10.2473 14.6715C8.71575 13.953 7.3595 13.003 6.1785 11.8215C4.997 10.6405 4.047 9.28425 3.3285 7.75275C2.6095 6.22175 2.25 4.65 2.25 3.0375C2.25 2.8125 2.325 2.625 2.475 2.475C2.625 2.325 2.8125 2.25 3.0375 2.25H6.075C6.25 2.25 6.40625 2.30625 6.54375 2.41875C6.68125 2.53125 6.7625 2.675 6.7875 2.85L7.275 5.475C7.3 5.65 7.297 5.80925 7.266 5.95275C7.2345 6.09675 7.1625 6.225 7.05 6.3375L5.25 8.175C5.775 9.075 6.43125 9.91875 7.21875 10.7062C8.00625 11.4937 8.875 12.175 9.825 12.75L11.5875 10.9875C11.7 10.875 11.847 10.7905 12.0285 10.734C12.2095 10.678 12.3875 10.6625 12.5625 10.6875L15.15 11.2125C15.325 11.25 15.4688 11.3342 15.5812 11.4653C15.6937 11.5967 15.75 11.75 15.75 11.925V14.9625C15.75 15.1875 15.675 15.375 15.525 15.525C15.375 15.675 15.1875 15.75 14.9625 15.75ZM4.5375 6.75L5.775 5.5125L5.4375 3.75H3.7875C3.85 4.2625 3.9375 4.76875 4.05 5.26875C4.1625 5.76875 4.325 6.2625 4.5375 6.75ZM14.25 14.2125V12.5625L12.4875 12.1875L11.25 13.425C11.7375 13.6375 12.2312 13.8125 12.7313 13.95C13.2313 14.0875 13.7375 14.175 14.25 14.2125Z" fill="black"/>
</g>
</svg>
