<svg width="18" height="19" viewBox="0 0 18 19" fill="none" xmlns="http://www.w3.org/2000/svg">
<g id="material-symbols:phone-in-talk-outline-rounded">
<path id="Vector" d="M15 9.5C14.8 9.5 14.622 9.428 14.466 9.284C14.3095 9.1405 14.2187 8.9625 14.1937 8.75C14.0312 7.5875 13.5407 6.59675 12.7222 5.77775C11.9032 4.95925 10.9125 4.46875 9.75 4.30625C9.5375 4.28125 9.3595 4.19375 9.216 4.04375C9.072 3.89375 9 3.7125 9 3.5C9 3.2875 9.075 3.10925 9.225 2.96525C9.375 2.82175 9.55 2.7625 9.75 2.7875C11.325 2.9625 12.6687 3.60625 13.7812 4.71875C14.8938 5.83125 15.5375 7.175 15.7125 8.75C15.7375 8.95 15.678 9.125 15.534 9.275C15.3905 9.425 15.2125 9.5 15 9.5ZM11.8687 9.5C11.7063 9.5 11.5625 9.44375 11.4375 9.33125C11.3125 9.21875 11.2188 9.06875 11.1562 8.88125C11.0562 8.51875 10.8658 8.19675 10.5848 7.91525C10.3033 7.63425 9.98125 7.44375 9.61875 7.34375C9.43125 7.28125 9.28125 7.1875 9.16875 7.0625C9.05625 6.9375 9 6.7875 9 6.6125C9 6.3625 9.0875 6.15925 9.2625 6.00275C9.4375 5.84675 9.63125 5.79375 9.84375 5.84375C10.5437 6.00625 11.147 6.3405 11.6535 6.8465C12.1595 7.353 12.4937 7.95625 12.6562 8.65625C12.7063 8.86875 12.65 9.0625 12.4875 9.2375C12.325 9.4125 12.1187 9.5 11.8687 9.5ZM14.9625 16.25C13.35 16.25 11.7782 15.8905 10.2473 15.1715C8.71575 14.453 7.3595 13.503 6.1785 12.3215C4.997 11.1405 4.047 9.78425 3.3285 8.25275C2.6095 6.72175 2.25 5.15 2.25 3.5375C2.25 3.3125 2.325 3.125 2.475 2.975C2.625 2.825 2.8125 2.75 3.0375 2.75H6.075C6.25 2.75 6.40625 2.80625 6.54375 2.91875C6.68125 3.03125 6.7625 3.175 6.7875 3.35L7.275 5.975C7.3 6.15 7.297 6.30925 7.266 6.45275C7.2345 6.59675 7.1625 6.725 7.05 6.8375L5.25 8.675C5.775 9.575 6.43125 10.4187 7.21875 11.2062C8.00625 11.9937 8.875 12.675 9.825 13.25L11.5875 11.4875C11.7 11.375 11.847 11.2905 12.0285 11.234C12.2095 11.178 12.3875 11.1625 12.5625 11.1875L15.15 11.7125C15.325 11.75 15.4688 11.8342 15.5812 11.9653C15.6937 12.0967 15.75 12.25 15.75 12.425V15.4625C15.75 15.6875 15.675 15.875 15.525 16.025C15.375 16.175 15.1875 16.25 14.9625 16.25ZM4.5375 7.25L5.775 6.0125L5.4375 4.25H3.7875C3.85 4.7625 3.9375 5.26875 4.05 5.76875C4.1625 6.26875 4.325 6.7625 4.5375 7.25ZM14.25 14.7125V13.0625L12.4875 12.6875L11.25 13.925C11.7375 14.1375 12.2312 14.3125 12.7313 14.45C13.2313 14.5875 13.7375 14.675 14.25 14.7125Z" fill="white"/>
</g>
</svg>
