<svg width="120" height="120" viewBox="0 0 120 120" fill="none" xmlns="http://www.w3.org/2000/svg">
<g id="icon">
<g id="Vector" filter="url(#filter0_d_106_272)">
<path fill-rule="evenodd" clip-rule="evenodd" d="M89.1238 22.2111C73.5226 9.93266 51.0149 11.3713 35.9871 20.5459C10.0877 36.3588 6.72795 75.8323 25.2274 93.6032C45.6258 113.197 73.4672 108.475 87.3418 95.9389C105.324 79.6916 113.011 52.9407 97.5317 33.0149" fill="#FFEEA7"/>
<path d="M89.1238 22.2111C73.5226 9.93266 51.0149 11.3713 35.9871 20.5459C10.0877 36.3588 6.72795 75.8323 25.2274 93.6032C45.6258 113.197 73.4672 108.475 87.3418 95.9389C105.324 79.6916 113.011 52.9407 97.5317 33.0149" stroke="black" stroke-width="4" stroke-miterlimit="1.5" stroke-linecap="round" stroke-linejoin="round"/>
</g>
<path id="Vector_2" d="M47.8091 47.8334C47.4046 50.3259 47.2374 52.8924 47.1731 55.4176" stroke="black" stroke-width="4" stroke-miterlimit="1.5" stroke-linecap="round" stroke-linejoin="round"/>
<path id="Vector_3" d="M70.1252 47.1328C70.1427 50.1432 70.3298 53.2857 70.0293 56.2925" stroke="black" stroke-width="4" stroke-miterlimit="1.5" stroke-linecap="round" stroke-linejoin="round"/>
<path id="Vector_4" d="M35.9609 68.9635C36.708 71.7657 38.3767 74.2181 40.4184 76.2352C50.4312 86.1285 69.1287 83.0373 76.2654 71.0961" stroke="black" stroke-width="4" stroke-miterlimit="1.5" stroke-linecap="round" stroke-linejoin="round"/>
</g>
<defs>
<filter id="filter0_d_106_272" x="11.5371" y="11.3334" width="100.324" height="101.503" filterUnits="userSpaceOnUse" color-interpolation-filters="sRGB">
<feFlood flood-opacity="0" result="BackgroundImageFix"/>
<feColorMatrix in="SourceAlpha" type="matrix" values="0 0 0 0 0 0 0 0 0 0 0 0 0 0 0 0 0 0 127 0" result="hardAlpha"/>
<feOffset dx="4" dy="4"/>
<feComposite in2="hardAlpha" operator="out"/>
<feColorMatrix type="matrix" values="0 0 0 0 0 0 0 0 0 0 0 0 0 0 0 0 0 0 1 0"/>
<feBlend mode="normal" in2="BackgroundImageFix" result="effect1_dropShadow_106_272"/>
<feBlend mode="normal" in="SourceGraphic" in2="effect1_dropShadow_106_272" result="shape"/>
</filter>
</defs>
</svg>
