<svg width="140" height="140" viewBox="0 0 140 140" fill="none" xmlns="http://www.w3.org/2000/svg">
<g filter="url(#filter0_d_106_322)">
<path fill-rule="evenodd" clip-rule="evenodd" d="M34.8153 99.7671C49.0284 99.279 107.346 97.8679 117.392 93.7468C129.409 88.8165 123.818 52.9932 122.115 39.6548C121.436 34.3324 118.814 27.5223 113.63 24.8654C104.607 20.2408 29.5429 25.5587 22.6623 28.2009C12.1834 32.2251 15.2194 45.9299 15.4825 53.0212C15.8596 63.1866 16.3858 73.3825 17.0805 83.5322C17.424 88.5523 17.3496 93.6651 21.442 97.2043C25.1433 100.405 30.3725 99.9198 34.8153 99.7671Z" fill="white"/>
<path fill-rule="evenodd" clip-rule="evenodd" d="M34.8153 99.7671C49.0284 99.279 107.346 97.8679 117.392 93.7468C129.409 88.8165 123.818 52.9932 122.115 39.6548C121.436 34.3324 118.814 27.5223 113.63 24.8654C104.607 20.2408 29.5429 25.5587 22.6623 28.2009C12.1834 32.2251 15.2194 45.9299 15.4825 53.0212C15.8596 63.1866 16.3858 73.3825 17.0805 83.5322C17.424 88.5523 17.3496 93.6651 21.442 97.2043C25.1433 100.405 30.3725 99.9198 34.8153 99.7671Z" stroke="black" stroke-width="4" stroke-miterlimit="1.5" stroke-linecap="round" stroke-linejoin="round"/>
</g>
<path d="M57.9396 98.9949C66.2068 98.6835 75.4684 98.2775 84.2265 97.748C85.4143 102.701 85.675 108.107 85.8824 112.407C85.919 113.166 85.954 113.891 85.9921 114.572C82.1524 114.814 77.2782 115.049 72.1346 115.298C67.2936 115.532 62.214 115.777 57.5335 116.05V114.548C57.5291 113.901 57.5164 113.175 57.5026 112.385C57.4393 108.752 57.3525 103.778 57.9396 98.9949Z" fill="white"/>
<path d="M57.9396 98.9949C66.2068 98.6835 75.4684 98.2775 84.2265 97.748C85.4143 102.701 85.675 108.107 85.8824 112.407C85.919 113.166 85.954 113.891 85.9921 114.572C82.1524 114.814 77.2782 115.049 72.1346 115.298C67.2936 115.532 62.214 115.777 57.5335 116.05V114.548C57.5291 113.901 57.5164 113.175 57.5026 112.385C57.4393 108.752 57.3525 103.778 57.9396 98.9949Z" stroke="black" stroke-width="4" stroke-miterlimit="1.5" stroke-linecap="round" stroke-linejoin="round"/>
<path d="M45.5012 116.843C49.3898 116.498 53.4228 116.21 57.5241 115.96M102.739 113.554C97.5405 113.962 91.8704 114.274 85.97 114.559" stroke="black" stroke-width="4" stroke-miterlimit="1.5" stroke-linecap="round" stroke-linejoin="round"/>
<path fill-rule="evenodd" clip-rule="evenodd" d="M79.714 66.2767C80.4458 68.7599 81.9621 72.1096 81.3199 74.6692C80.2941 78.7557 75.1412 76.2071 73.1496 74.7158C72.6212 74.32 72.0965 73.9173 71.5909 73.4922C70.9893 72.9866 70.3959 72.4694 69.8233 71.931C68.1803 73.8949 65.8498 76.0502 63.4096 76.9249C61.3649 77.6577 59.6633 76.7585 59.2838 74.582C58.8303 71.9832 59.5735 69.018 60.2353 66.5163C58.259 64.6376 56.2075 62.7323 54.7419 60.4317C53.3333 58.22 54.3864 56.149 56.8634 55.5819C57.6636 55.3987 58.4833 55.3079 59.3026 55.2682C60.4052 55.215 63.0552 55.3017 63.7305 55.3017C63.8051 55.2587 63.9643 54.6027 64.004 54.491C64.2745 53.7325 64.5584 52.9842 64.8738 52.243C65.1121 51.6837 65.355 51.126 65.604 50.5716C66.4901 48.5985 68.4589 43.2883 71.4229 45.3112C71.724 45.517 71.9773 45.7758 72.2075 46.0567C72.5874 46.5209 72.8855 47.0688 73.1593 47.6008C73.6733 48.5995 74.0754 49.6497 74.4836 50.694C75.0937 52.2536 75.6051 53.8667 76.2809 55.4002C76.2894 55.4191 76.2955 55.439 76.3007 55.4592C77.3053 55.484 78.3129 55.5011 79.3168 55.5512C81.507 55.6603 84.9317 55.0903 85.8926 57.274C86.4125 58.4547 85.8373 59.7042 85.1319 60.6619C83.6985 62.607 81.76 64.108 79.8807 65.5937" fill="#FF9898"/>
<path d="M79.714 66.2767C80.4458 68.7599 81.9621 72.1096 81.3199 74.6692C80.2941 78.7557 75.1412 76.2071 73.1496 74.7158C72.6212 74.32 72.0965 73.9173 71.5909 73.4922C70.9893 72.9866 70.3959 72.4694 69.8233 71.931C68.1803 73.8949 65.8498 76.0502 63.4096 76.9249C61.3649 77.6577 59.6633 76.7585 59.2838 74.582C58.8303 71.9832 59.5735 69.018 60.2353 66.5163C58.259 64.6376 56.2075 62.7323 54.7419 60.4317C53.3333 58.22 54.3864 56.149 56.8634 55.5819C57.6636 55.3987 58.4833 55.3079 59.3026 55.2682C60.4052 55.215 63.0552 55.3017 63.7305 55.3017C63.8051 55.2587 63.9643 54.6027 64.004 54.491C64.2745 53.7325 64.5584 52.9842 64.8738 52.243C65.1121 51.6837 65.355 51.126 65.604 50.5716C66.4901 48.5985 68.4589 43.2883 71.4229 45.3112C71.724 45.517 71.9773 45.7758 72.2075 46.0567C72.5874 46.5209 72.8855 47.0688 73.1593 47.6008C73.6733 48.5995 74.0754 49.6497 74.4836 50.694C75.0937 52.2536 75.6051 53.8667 76.2809 55.4002C76.2894 55.4191 76.2955 55.439 76.3007 55.4592C77.3053 55.484 78.3129 55.5011 79.3168 55.5512C81.507 55.6603 84.9317 55.0903 85.8926 57.274C86.4125 58.4547 85.8373 59.7042 85.1319 60.6619C83.6985 62.607 81.76 64.108 79.8807 65.5937" stroke="black" stroke-width="2" stroke-miterlimit="1.5" stroke-linecap="round" stroke-linejoin="round"/>
<defs>
<filter id="filter0_d_106_322" x="12.875" y="21.042" width="118.029" height="84.8438" filterUnits="userSpaceOnUse" color-interpolation-filters="sRGB">
<feFlood flood-opacity="0" result="BackgroundImageFix"/>
<feColorMatrix in="SourceAlpha" type="matrix" values="0 0 0 0 0 0 0 0 0 0 0 0 0 0 0 0 0 0 127 0" result="hardAlpha"/>
<feOffset dx="4" dy="4"/>
<feComposite in2="hardAlpha" operator="out"/>
<feColorMatrix type="matrix" values="0 0 0 0 0 0 0 0 0 0 0 0 0 0 0 0 0 0 1 0"/>
<feBlend mode="normal" in2="BackgroundImageFix" result="effect1_dropShadow_106_322"/>
<feBlend mode="normal" in="SourceGraphic" in2="effect1_dropShadow_106_322" result="shape"/>
</filter>
</defs>
</svg>
